<svg viewBox="0 0 44.69 48.33" xmlns="http://www.w3.org/2000/svg"><g data-name="Layer 2"><g data-name="Layer 1"><path d="M13.36 39.93a10.66 10.66 0 0 1-6.17-9.63V27a1.35 1.35 0 0 0-2.7 0v3.3c0 5.21 3.25 10.5 8.3 12.2a1.35 1.35 0 0 0 .57-2.57Z" fill="#ffffff" class="fill-353535"></path><path d="M41.76 20.49H35.6v-.88a2.93 2.93 0 0 0-2.93-2.93H2.93A2.93 2.93 0 0 0 0 19.61v10.92a17.8 17.8 0 0 0 8.39 15.1H2a1.35 1.35 0 0 0 0 2.7h31.64a1.35 1.35 0 0 0 0-2.7h-6.43a17.88 17.88 0 0 0 5.24-5 11.56 11.56 0 0 0 12.24-11.49v-5.72a2.93 2.93 0 0 0-2.93-2.93Zm-24 25.14A15.11 15.11 0 0 1 2.7 30.53V19.61a.23.23 0 0 1 .23-.23h29.74a.24.24 0 0 1 .23.23v10.92a15.11 15.11 0 0 1-15.1 15.1ZM42 29.14a8.79 8.79 0 0 1-7.93 8.74c2.13-4 1.54-10.31 1.6-14.7h6.1a.24.24 0 0 1 .23.24ZM12.05 12.37a1.35 1.35 0 0 0 2.69 0 1.55 1.55 0 0 1 .41-1.07A4.11 4.11 0 0 0 16 8.69a4.17 4.17 0 0 0-.89-2.62A1.5 1.5 0 0 1 14.74 5a1.5 1.5 0 0 1 .41-1A4.17 4.17 0 0 0 16 1.33a1.35 1.35 0 0 0-2.69 0 1.5 1.5 0 0 1-.41 1.06 4.35 4.35 0 0 0 0 5.24 1.58 1.58 0 0 1 0 2.12 4.17 4.17 0 0 0-.85 2.62ZM19.55 12.37a1.35 1.35 0 0 0 2.7 0 1.58 1.58 0 0 1 .4-1.07 4.05 4.05 0 0 0 .9-2.61 4.11 4.11 0 0 0-.9-2.62 1.6 1.6 0 0 1 0-2.12 4.11 4.11 0 0 0 .9-2.62 1.35 1.35 0 0 0-2.7 0 1.5 1.5 0 0 1-.4 1.06 4.34 4.34 0 0 0 0 5.24 1.6 1.6 0 0 1 0 2.12 4.11 4.11 0 0 0-.9 2.62Z" fill="#ffffff" class="fill-353535"></path></g></g></svg>