<svg viewBox="0 0 24 24" xmlns="http://www.w3.org/2000/svg"><path d="M22.5 3h-3.315a2.16 2.16 0 0 0-.309-1.624A1.108 1.108 0 0 0 18 1a8.044 8.044 0 0 0-4.231 2H10.35A8.118 8.118 0 0 0 6 1a1.108 1.108 0 0 0-.876.376A2.16 2.16 0 0 0 4.815 3H1.5a.5.5 0 0 0-.5.5v4a.5.5 0 0 0 .5.5H2v14.5a.5.5 0 0 0 .5.5h19a.5.5 0 0 0 .5-.5V8h.5a.5.5 0 0 0 .5-.5v-4a.5.5 0 0 0-.5-.5Zm-7.83 5.696-.512-.17a.5.5 0 0 0-.632.316l-.054.16-.629-1.677-.168-.45a1.989 1.989 0 0 0 .63-.372c.174.086.404.199.675.325Zm-4.606-1.825c.277-.122.514-.231.694-.316a1.986 1.986 0 0 0 .567.32l-.168.45-.63 1.677-.053-.16a.5.5 0 0 0-.632-.316l-.488.163ZM13 5a1 1 0 1 1-1-1 1.001 1.001 0 0 1 1 1Zm-2 5.591L11.972 8h.056L13 10.591V22h-2Zm7.118-8.562c.185.215.05 1.112-.022 1.594A6.607 6.607 0 0 0 18 4.5l.005.324c.011.568.036 1.75-.306 2.099-.293.297-2.445-.583-3.822-1.256a1.92 1.92 0 0 0-.026-1.416C15.213 2.99 17.011 2 18 2a.165.165 0 0 1 .118.029Zm-12.236 0A.165.165 0 0 1 6 2a7.796 7.796 0 0 1 4.182 2.177 1.95 1.95 0 0 0-.037 1.56c-1.42.65-3.557 1.477-3.844 1.186-.342-.349-.317-1.53-.306-2.099L6 4.5a6.607 6.607 0 0 0-.096-.877c-.072-.482-.207-1.379-.022-1.594ZM2 4h2.949A3.8 3.8 0 0 1 5 4.5l-.004.304A6.386 6.386 0 0 0 5.214 7H2Zm1 4h5.549l-.515 1.318a.5.5 0 0 0 .624.656l1.026-.342.316.949V22H3Zm18 14h-7V10.58l.316-.948 1.026.342a.5.5 0 0 0 .627-.647L15.48 8H21Zm1-15h-3.214a6.386 6.386 0 0 0 .218-2.196L19 4.5a3.8 3.8 0 0 1 .051-.5H22Z" fill="#ffffff" class="fill-000000"></path></svg>